<svg width="147" height="72" viewBox="0 0 147 72" fill="none" xmlns="http://www.w3.org/2000/svg">
<path d="M54.8922 35.9456L54.727 36.121C53.2371 37.7107 51.7369 39.3004 50.247 40.897L45.2681 36.1761C42.7803 33.8225 40.2926 31.4724 37.8083 29.1189C39.3773 27.4913 40.9464 25.8604 42.5188 24.2328C42.856 24.5563 43.3997 25.0793 44.0775 25.7227C44.5799 26.201 44.955 26.5554 45.096 26.6862C46.7305 28.2277 48.3649 29.7761 49.9958 31.3176C51.6303 32.8625 53.2578 34.4041 54.8922 35.9456Z" fill="#231F20"/>
<path d="M78.094 11.481L78.0664 11.512L54.8922 35.9456L54.7305 36.1211L50.2298 40.8695L45.3403 36.2312L49.9958 31.3211L68.6453 11.6565L73.0428 7.01477L78.0389 11.4845L78.094 11.481Z" fill="#231F20"/>
<path d="M79.1812 35.5017L79.016 35.6772C77.5261 37.2669 76.0259 38.8566 74.536 40.4532L66.5739 32.9039L71.2328 27.9938C72.2513 28.9572 73.2698 29.9138 74.2814 30.8772C75.9193 32.4187 77.5468 33.9602 79.1812 35.5017Z" fill="#5CD2DD"/>
<path d="M108.45 4.63588L103.561 0L69.6231 35.7876L74.5116 40.4235L108.45 4.63588Z" fill="#5CD2DD"/>
<path d="M74.2849 30.8773C72.709 32.5151 71.1296 34.153 69.5537 35.7908L64.4302 30.8532L69.127 25.9844C70.8475 27.6119 72.5644 29.2429 74.2849 30.8773Z" fill="#5CD2DD"/>
<path d="M49.5771 7.12175L44.8656 12.009L49.7529 16.7205L54.4643 11.8332L49.5771 7.12175Z" fill="#5CD2DD"/>
<path d="M13.8391 60.8265H15.618V71.5724H14.7337C13.6017 71.5724 12.5006 71.3143 11.4271 70.7947C10.3294 70.2683 9.40384 69.5319 8.65717 68.5926V71.5758H7.77287C5.77372 71.5758 4.012 70.867 2.48425 69.4459C0.829195 67.9113 -5.14984e-05 65.981 -5.14984e-05 63.6515V60.8265H1.77888V63.6515C1.77888 65.2171 2.30533 66.5797 3.35479 67.7392C4.32512 68.8025 5.49845 69.4528 6.87824 69.6868V60.8265H8.73975V63.6515C8.73975 65.2171 9.2662 66.5797 10.3157 67.7392C11.286 68.8025 12.4593 69.4528 13.8391 69.6868V60.8265Z" fill="#231F20"/>
<path d="M24.9325 71.5758C23.4116 71.5758 22.111 71.0356 21.0271 69.9517C19.9432 68.8678 19.403 67.5672 19.403 66.0463C19.403 64.5255 19.9432 63.2248 21.0271 62.1409C22.111 61.0571 23.4116 60.5168 24.9325 60.5168C26.4534 60.5168 27.754 61.0571 28.8379 62.1409C29.9218 63.2248 30.462 64.5255 30.462 66.0463V66.9547H24.9325V65.1414H28.5282C28.3218 64.3293 27.8882 63.6618 27.2276 63.1354C26.56 62.6089 25.7962 62.3474 24.9359 62.3474C23.9174 62.3474 23.0469 62.7087 22.3209 63.4347C21.5949 64.1607 21.2336 65.0313 21.2336 66.0498C21.2336 67.0683 21.5949 67.9388 22.3209 68.6648C23.0469 69.3908 23.9174 69.7521 24.9359 69.7521V71.5758H24.9325Z" fill="#231F20"/>
<path d="M39.5734 57.771C38.5136 57.7779 37.6499 58.1495 36.9824 58.8824C36.3149 59.6153 35.9777 60.5616 35.9777 61.7143V62.9495H37.8048V64.7526H35.9777V71.5758H34.1987V61.7143C34.1987 60.0592 34.7046 58.6932 35.7162 57.6128C36.7278 56.5254 38.0078 55.9749 39.5596 55.968L39.5734 57.771Z" fill="#57C8CE"/>
<path d="M40.9601 66.1668C40.9601 64.6425 41.4934 63.3453 42.5601 62.2717C43.6267 61.1913 44.9067 60.6511 46.4035 60.6511V62.3096C45.3541 62.3096 44.4525 62.6846 43.7059 63.4347C42.9661 64.1917 42.5945 65.1035 42.5945 66.1702V71.5793H40.9601V66.1668Z" fill="#57C8CE"/>
<path d="M53.853 71.6102C52.3631 71.6102 51.09 71.07 50.0302 69.9861C48.9704 68.9126 48.4405 67.6085 48.4405 66.0807C48.4405 64.5599 48.9704 63.2592 50.0302 62.1754C51.09 61.0915 52.3631 60.5513 53.853 60.5513C55.3429 60.5513 56.616 61.0915 57.6723 62.1754C58.7321 63.2592 59.262 64.5599 59.262 66.0807V71.4072H57.4693V66.0807C57.4693 65.0622 57.1149 64.1917 56.4061 63.4657C55.6973 62.7397 54.8474 62.3784 53.8495 62.3784C52.8448 62.3784 51.9915 62.7397 51.2827 63.4657C50.5738 64.1917 50.2194 65.0622 50.2194 66.0807C50.2194 67.0992 50.5738 67.9698 51.2827 68.6958C51.9915 69.4218 52.8483 69.7831 53.8495 69.7831V71.6102H53.853Z" fill="#57C8CE"/>
<path d="M77.8806 60.6958C79.3774 60.6958 80.6539 61.236 81.7137 62.313C82.7735 63.3935 83.3034 64.6941 83.3034 66.2184V71.5586H81.5004V66.2184C81.5004 65.1965 81.1494 64.3259 80.4509 63.6034C79.7421 62.8911 78.8853 62.5332 77.884 62.5332C76.8896 62.5332 76.0363 62.8911 75.3274 63.6034C74.6186 64.3259 74.2642 65.1965 74.2642 66.2184V71.5586H72.4715V66.2184C72.4715 65.1965 72.1171 64.3259 71.4083 63.6034C70.6995 62.8911 69.8462 62.5332 68.8517 62.5332C67.8573 62.5332 67.004 62.8911 66.2952 63.6034C65.5864 64.3259 65.2319 65.1965 65.2319 66.2184V71.5724H63.4393V60.8403H65.2319V62.1169C66.2676 61.1672 67.472 60.6924 68.8517 60.6924C69.7739 60.6924 70.6444 60.9195 71.4565 61.3737C72.2375 61.8107 72.8741 62.4128 73.3662 63.1732C73.8582 62.4094 74.5016 61.8107 75.2896 61.3737C76.0913 60.9229 76.955 60.6958 77.8806 60.6958Z" fill="#57C8CE"/>
<path d="M92.3873 71.5758C90.8664 71.5758 89.5658 71.0356 88.4819 69.9517C87.398 68.8678 86.8578 67.5672 86.8578 66.0463C86.8578 64.5255 87.398 63.2248 88.4819 62.1409C89.5658 61.0571 90.8664 60.5168 92.3873 60.5168C93.9082 60.5168 95.2088 61.0571 96.2927 62.1409C97.3766 63.2248 97.9168 64.5255 97.9168 66.0463V66.9547H92.3873V65.1414H95.983C95.7765 64.3293 95.343 63.6618 94.6823 63.1354C94.0148 62.6089 93.251 62.3474 92.3907 62.3474C91.3722 62.3474 90.5017 62.7087 89.7757 63.4347C89.0497 64.1607 88.6884 65.0313 88.6884 66.0498C88.6884 67.0683 89.0497 67.9388 89.7757 68.6648C90.5017 69.3908 91.3722 69.7521 92.3907 69.7521V71.5758H92.3873Z" fill="#57C8CE"/>
<path d="M103.374 65.8295C103.374 66.9857 103.711 67.9285 104.389 68.6579C105.067 69.3908 105.941 69.759 107.014 69.7693L107.004 71.5724C105.428 71.5655 104.131 71.0184 103.112 69.9379C102.087 68.8541 101.571 67.4846 101.571 65.8295V55.968H103.374V60.6958H107.014V62.4988H103.374V65.8295Z" fill="#231F20"/>
<path d="M115.217 71.5758C113.697 71.5758 112.396 71.0356 111.312 69.9517C110.228 68.8678 109.688 67.5672 109.688 66.0463C109.688 64.5255 110.228 63.2248 111.312 62.1409C112.396 61.0571 113.697 60.5168 115.217 60.5168C116.738 60.5168 118.039 61.0571 119.123 62.1409C120.207 63.2248 120.747 64.5255 120.747 66.0463V66.9547H115.217V65.1414H118.813C118.607 64.3293 118.173 63.6618 117.512 63.1354C116.845 62.6089 116.081 62.3474 115.221 62.3474C114.202 62.3474 113.332 62.7087 112.606 63.4347C111.88 64.1607 111.519 65.0313 111.519 66.0498C111.519 67.0683 111.88 67.9388 112.606 68.6648C113.332 69.3908 114.202 69.7521 115.221 69.7521V71.5758H115.217Z" fill="#231F20"/>
<path d="M125.523 69.9517C124.439 68.8781 123.899 67.574 123.899 66.0463C123.899 64.5254 124.439 63.2248 125.523 62.1409C126.596 61.0674 127.9 60.5306 129.428 60.5306C130.55 60.5306 131.579 60.8437 132.508 61.4734L131.493 62.977C130.873 62.5538 130.182 62.3439 129.428 62.3439C128.41 62.3439 127.539 62.7052 126.813 63.4312C126.087 64.1573 125.726 65.0278 125.726 66.0463C125.726 67.0648 126.087 67.9353 126.813 68.6614C127.539 69.3874 128.41 69.7487 129.428 69.7487C130.216 69.7487 130.932 69.5181 131.579 69.057L132.642 70.5504C131.679 71.2351 130.608 71.5758 129.428 71.5758C127.9 71.5758 126.6 71.0321 125.523 69.9517Z" fill="#231F20"/>
<path d="M141.106 60.7095C142.603 60.7095 143.883 61.2462 144.95 62.3198C146.01 63.4002 146.54 64.7009 146.54 66.2149V71.562H144.737V66.2149C144.737 65.1998 144.382 64.3327 143.673 63.6136C142.965 62.8944 142.108 62.5366 141.106 62.5366C140.105 62.5366 139.245 62.8944 138.526 63.6136C137.817 64.3327 137.463 65.1998 137.463 66.2149V71.5757H135.66V55.9783H137.463V62.1237C138.498 61.1809 139.713 60.7095 141.106 60.7095Z" fill="#231F20"/>
<path d="M59.2655 71.2318H57.4728V71.6102H59.2655V71.2318Z" fill="#5CD2DD"/>
</svg>
